<?xml version="1.0" encoding="UTF-8"?>
<svg xmlns="http://www.w3.org/2000/svg" version="1.1" viewBox="0 0 1063.9 246.9">
  <defs>
    <style>
      .cls-1 {
        display: none;
      }

      .cls-1, .cls-2 {
        fill: #f0c62b;
      }

      .cls-3 {
        fill: none;
      }

      .cls-4 {
        fill: #006128;
      }

      .cls-5 {
        fill: #003a17;
      }
    </style>
  </defs>
  <!-- Generator: Adobe Illustrator 28.6.0, SVG Export Plug-In . SVG Version: 1.2.0 Build 709)  -->
  <g>
    <g id="a">
      <g>
        <g>
          <path class="cls-2" d="M492.5,197c0-3.2,2.4-4.8,5.7-4.8s5.7,1.6,5.7,4.8v38c3.2,1,7,1.4,11.4,1.4s11.1-.7,14.2-1.5c3.6-1.1,6.2,2.1,6.2,5.1s-1,3.6-3.3,4.4c-6.4,2-11.7,2.2-17.1,2.2s-22.8-.5-22.8-5.7v-43.9h0Z"/>
          <path class="cls-2" d="M578.3,229.6h-26.9v11c0,3.7-2.9,5.1-5.7,5.1s-5.7-1.4-5.7-5.1v-23.2c0-16,8.7-25.7,24.9-25.7s24.8,9.6,24.8,25.7v23.2c0,3.7-2.8,5.1-5.6,5.1s-5.7-1.4-5.7-5.1v-11h0ZM551.3,220.3h26.9v-2.9c0-11.9-6.4-15.9-13.5-15.9s-13.4,4.1-13.4,15.9v2.9Z"/>
          <path class="cls-2" d="M635.8,217.1c0-11.5-6.4-15.3-14.2-15.3s-14.3,3.8-14.3,15.3v23.6c0,3.7-2.2,5.1-5.7,5.1s-5.7-1.4-5.7-5.1v-23.5c0-16.1,8.9-25.6,25.7-25.6s25.7,9.5,25.7,25.6v23.5c0,3.7-2.3,5.1-5.7,5.1s-5.7-1.4-5.7-5.1v-23.6h0Z"/>
          <path class="cls-2" d="M654.3,197.5c0-4.9,15.4-5.8,21.7-5.8,20.7,0,30.3,8.7,30.3,27.1s-10.8,27.4-30.6,27.4-21.4-.9-21.4-5.8v-42.9h0ZM665.7,236c1.8.5,4.8,1.1,9.6,1.1,12.5,0,19-4.8,19-18.2s-7.9-18.3-18.5-18.3-7.1.5-10.1,1.3v34.1h0Z"/>
          <path class="cls-2" d="M733.8,246.1c-8.7,0-17.4-1.6-21.2-3.7-1.8-1-2.6-2.5-2.6-4,0-2.9,2.9-5.7,6.8-4.4,4.5,1.6,9.3,2.8,16.2,2.8s12.7-1.6,12.7-6.5c0-11.4-33.5-2.5-33.5-23.4s13.8-15.4,22.4-15.4,14,1.7,17.4,3.2c1.9.9,2.7,2.5,2.7,4.1,0,2.3-1.8,4.5-4.8,4.5s-1.5-.1-2.3-.4c-3.9-1.3-6.9-2.1-13.4-2.1s-10.9.9-10.9,5.7c0,11.3,33.4,2.2,33.4,23.4,0,13.7-13.2,16.2-22.9,16.2h0Z"/>
          <path class="cls-2" d="M791.8,246.5c-16.7,0-31-8.5-31-27.6s14.2-27.6,31-27.6,15.8,1.8,21.4,7c1,1.1,1.6,2.1,1.6,3.7,0,2.8-2.3,4.8-5.1,4.8s-4.7-1.8-6.6-2.7c-3.4-2-7.2-2.5-11.3-2.5-10.1,0-18.3,5.7-18.3,17.3s8.1,17.4,18.4,17.4,10.1-1,14.6-3.6c1-.6,2.2-.8,3.1-.8,3.1,0,5.5,2.7,5.5,5.4s-.6,2.7-1.9,3.7c-6.3,4.4-13.8,5.6-21.4,5.5h0Z"/>
          <path class="cls-2" d="M858.9,229.6h-26.9v11c0,3.7-2.9,5.1-5.7,5.1s-5.7-1.4-5.7-5.1v-23.2c0-16,8.7-25.7,24.9-25.7s24.8,9.6,24.8,25.7v23.2c0,3.7-2.8,5.1-5.6,5.1s-5.7-1.4-5.7-5.1v-11h0ZM831.9,220.3h26.9v-2.9c0-11.9-6.4-15.9-13.5-15.9s-13.4,4.1-13.4,15.9v2.9Z"/>
          <path class="cls-2" d="M877.3,197.7c0-2.8,1-4,4.7-4.4,4.8-.7,12.8-1.3,18.4-1.3,12.7,0,23.4,4.1,23.4,17.7s-13.7,17.9-23.6,17.9-8.4-.4-11.5-.6v13.6c0,3.3-2.7,5.2-5.7,5.2s-5.7-1.9-5.7-5.2v-42.9h0ZM888.7,217.3c3.5.5,6.4.7,10.8.7s12.6-1,12.6-8.3-7.1-8.1-12.6-8.1-7.2.2-10.8.8v14.9h0Z"/>
          <path class="cls-2" d="M929.8,197.4c0-3.1,2.4-5.2,5.7-5.2s5.7,2.1,5.7,5.2v43.2c0,3.1-2.9,5.2-5.7,5.2s-5.7-2.1-5.7-5.2v-43.2Z"/>
          <path class="cls-2" d="M988.4,217.1c0-11.5-6.4-15.3-14.2-15.3s-14.3,3.8-14.3,15.3v23.6c0,3.7-2.2,5.1-5.7,5.1s-5.7-1.4-5.7-5.1v-23.5c0-16.1,8.9-25.6,25.7-25.6s25.7,9.5,25.7,25.6v23.5c0,3.7-2.3,5.1-5.7,5.1s-5.7-1.4-5.7-5.1v-23.6h0Z"/>
          <path class="cls-2" d="M1042.6,226.8c-3.8,0-5.6-2.1-5.6-5.1s1.8-5.1,5.6-5.1h15.6c2.8,0,5.6,1.4,5.6,6.7,0,11.5-9.6,23.4-27.8,23.4s-30.8-9.6-30.8-27.5,14.2-27.6,30.2-27.6,18.7,3.2,23.2,8c1,1.1,1.6,2.3,1.6,3.7,0,2.4-2.7,4.4-5.6,4.4s-4.3-1.8-6.1-2.9c-3.5-2.4-8-3.5-12.1-3.5-10.3,0-18.3,5.8-18.3,18s8,17.8,18.6,17.8,13.1-2.9,15.4-10.1l-9.5-.2h0Z"/>
        </g>
        <g>
          <path class="cls-1" d="M272.7,171.4c-23.2,0-37.6-14.1-37.6-34.2s14.5-34.2,37.6-34.2,37.6,14.1,37.6,34.2c0,20-14.6,34.2-37.6,34.2h0ZM272.7,120.7c-9.5,0-15.5,6.8-15.5,16.5s6.1,16.5,15.5,16.5,15.5-6.8,15.5-16.5-6.2-16.5-15.5-16.5Z"/>
          <path class="cls-1" d="M354.1,121.3c-4.5-.2-8.2-.3-12.6-.3s-11,.3-13.5.5c-5.4.2-8.9-4.3-8.9-8.9s2.2-7.2,7.5-7.9c7-.9,14.5-1.4,22.5-1.4s16.6.6,23.5,1.7c6.2.9,8.2,5.3,8.2,9.5s-1.6,7.3-3.4,8.7l-33.4,28.4c2.8.3,7.6.6,12.7.6s12.9-.6,15.8-1.4c5.8-1.2,10.1,3.6,10.1,8.5s-2,6.5-6.7,7.9c-7.9,2.5-21.5,2.5-27,2.5s-19.1-.3-26.7-4.2c-3.1-1.7-4.5-4.5-4.5-7.6s1.7-7,4.7-9.2l31.7-27.4h0Z"/>
          <path class="cls-4" d="M458.9,162.7c-4.8,5.6-11.8,7.9-20.4,7.9-19.6,0-33.3-11.8-33.3-32.5s15.2-35.8,37.6-35.8,37.2,15.2,37.5,34.3v27.5c0,29.7-23,36.5-44.5,36.5s-18.3-1.4-25-3.3c-4.3-1.1-6.4-4.7-6.4-8.4s4-10.6,11.7-8.9c7,1.7,10.4,2.6,20.2,2.6s22.5-4.5,22.5-18.6v-1.3h0ZM442.9,120.2c-7.9,0-15.5,5.3-15.5,16s7.6,15.9,15.5,15.9,15.7-5.1,15.7-15.9-7.6-16-15.7-16Z"/>
          <path class="cls-4" d="M492.5,137.7c0-28.1,14.6-35.3,36.4-35.3s9.8,5.1,9.8,10.4-2.6,10.4-9.8,10.4c-12.1,0-15.2,7.5-15.2,15.5v20.8c0,6.4-4,9.6-10.6,9.6s-10.6-3.1-10.6-9.6v-21.8Z"/>
          <path class="cls-4" d="M562.9,143c2.2,6.7,8.1,10.4,19.7,10.4s11.2-1.6,15.2-3.1c6.7-2,11.2,2.6,11.2,7.5s-1.4,5.3-4.2,7c-5.9,3.6-14.1,5.1-26.1,5.1-24.9,0-37.5-13.8-37.5-33.4s14.1-34,37-34,31.5,7.5,31.5,23.6-12.7,20.4-27.8,20.4c-6.6-.1-13.3-.9-19-3.5h0ZM562.7,128.6c5.4,2.2,9.5,3.1,15.5,3.1s11.2-2.2,11.2-6.5-3.9-7-10.7-7c-9.3-.1-14.1,3.7-16,10.4h0Z"/>
          <path class="cls-4" d="M639.8,143c2.2,6.7,8.1,10.4,19.7,10.4s11.2-1.6,15.2-3.1c6.7-2,11.2,2.6,11.2,7.5s-1.4,5.3-4.2,7c-5.9,3.6-14.1,5.1-26.1,5.1-24.9,0-37.5-13.8-37.5-33.4s14.1-34,37-34,31.5,7.5,31.5,23.6-12.7,20.4-27.8,20.4c-6.6-.1-13.2-.9-19-3.5h0ZM639.7,128.6c5.4,2.2,9.5,3.1,15.5,3.1s11.2-2.2,11.2-6.5-3.9-7-10.7-7c-9.4-.1-14.2,3.7-16,10.4h0Z"/>
          <path class="cls-4" d="M744.3,134.9c0-9.5-5.3-13.7-12.9-13.7s-12.9,4.2-12.9,13.7v24.2c0,6.5-4.7,10.1-10.7,10.1s-10.6-3.3-10.6-10.1v-24.4c0-22.4,14.5-32.3,34.2-32.3s34.2,9.9,34.2,32.3v24.4c0,6.7-4.5,10.1-10.7,10.1s-10.6-3.3-10.6-10.1v-24.2Z"/>
          <path class="cls-4" d="M838.7,170.2c-10.4,0-17.6-1.7-23.9-3.9-4-1.4-5.9-4.7-5.9-7.8,0-5,4.7-9.8,11.7-7.6,5.1,1.4,12.6,3.3,18.2,3.3s11.7-1.2,11.7-4.8c0-9.5-39.5,1.7-39.5-24.4s20.2-22.4,31.1-22.4,16.3,1.4,21.9,3.6c4.2,1.4,6.1,4.7,6.1,7.8,0,4.8-4.3,9.6-10.9,7.8-5.1-1.6-11.5-2.6-17.1-2.6s-9,.8-9,4c0,9,39.5-1.4,39.5,25.2-.2,19.8-22.7,21.8-33.9,21.8h0Z"/>
          <path class="cls-4" d="M881.3,92.8c0-6.4,5-9.5,9.9-9.5s10.3,3.1,10.3,9.5v11.2h7.8c6.8,0,10.4,5,10.4,9.9s-3.4,9.8-10.4,9.8h-7.8v13.8c0,7.8,3.4,12,11.3,12s8.9,5,8.9,9.8-2.9,9.9-9.9,9.9c-25,0-30.5-12.6-30.5-31.7v-44.7h0Z"/>
          <path class="cls-4" d="M1001.9,146.6c0,3.3.8,4.5,3.3,4.8,3.7.8,5.8,5.3,5.3,9.5s-3.4,8.4-11.8,8.4-12-2.8-14.8-8.1c-5,5.3-12.7,8.5-24.1,8.5-19.7,0-32.5-11.7-32.5-31.4s16-35.9,37.6-35.9,37,14.8,37,34.7v9.5h0ZM964.9,119.4c-9,0-16.6,5.6-16.6,17.3s7.8,16,16.2,16,16.8-5.8,16.8-16.3c-.1-11.7-7.7-17-16.4-17h0Z"/>
          <path class="cls-4" d="M1017.7,137.7c0-28.1,14.6-35.3,36.4-35.3s9.8,5.1,9.8,10.4-2.6,10.4-9.8,10.4c-12.1,0-15.2,7.5-15.2,15.5v20.8c0,6.4-4,9.6-10.6,9.6s-10.6-3.1-10.6-9.6v-21.8h0Z"/>
        </g>
      </g>
      <g>
        <path class="cls-5" d="M141.2,162.1c-39.3,8.4-82.2,8.6-121.6.6-12.2-2.5-17.4,16.2-5.2,18.7,42.9,8.8,89.1,8.6,131.9-.6,12.3-2.6,7.1-21.3-5.1-18.7h0Z"/>
        <path class="cls-5" d="M133.8,202.2c-39.3,8.4-82.3,8.6-121.7.6-12.2-2.5-17.4,16.2-5.1,18.7,42.9,8.8,89.2,8.6,132-.6,12.2-2.6,7-21.3-5.2-18.7h0Z"/>
        <path class="cls-5" d="M21.7,150.8c-.4,27.3-.8,54.5-1.2,81.8-.2,12.5,19.2,12.5,19.4,0,.4-27.3.8-54.5,1.2-81.8.2-12.5-19.2-12.5-19.4,0h0Z"/>
        <path class="cls-5" d="M60.2,161.1c-1.2,23.8-2,47.6-3.1,71.4-.3,5.2,4.6,9.7,9.7,9.7s9.4-4.4,9.7-9.7c1.2-23.8,2-47.6,3.1-71.4.3-5.2-4.6-9.7-9.7-9.7-5.5,0-9.5,4.5-9.7,9.7h0Z"/>
        <path class="cls-5" d="M95.1,153.6c3.2,25.1,3.4,51.2-.3,76.3-.8,5.2,1.3,10.4,6.8,11.9,4.6,1.3,11.2-1.6,11.9-6.8,4-26.9,4.5-54.5,1-81.5-.7-5.2-4-9.7-9.7-9.7-4.8,0-10.4,4.6-9.7,9.8h0Z"/>
        <path d="M185.2,113.4h0q0,0,0,0Z"/>
        <path d="M148.8,222h0c-.1,0,0,0,0,0h0Z"/>
        <path class="cls-4" d="M301.8,237.3c-.6,5.9-5.7,11.2-12.1,9.2-10.5-3.2-21.1-6.3-31.3-10.5-10.7-4.4-20.7-9.9-30.1-16.7-4.3-3.1-6.1-8.1-3.4-13.1,2.3-4.3,9.1-6.4,13.1-3.4,4.6,3.3,9.3,6.4,14.3,9.2,2.2,1.2,4.5,2.4,6.7,3.5s2.4,1.1,3.6,1.7c.1,0,.6.2.9.4.3.1.6.3.7.3,5.8,2.4,11.8,4.4,17.8,6.3-.1-.9-.3-1.8-.5-2.6-.5-2.3-1.1-4.6-1.8-6.9-1.2-4.3-2.7-8.6-4.2-12.9-.9-2.4-1.8-4.7-2.7-7-.1-.3-.5-1.2-.7-1.8-.4-1-.9-2-1.3-3-4-9.2-8.6-18.2-13.4-27-1.9-3.4-3.9-6.9-5.9-10.3,1.8-4.9,2.8-10.2,2.8-15.7,0-10.4-3.6-20-9.5-27.7,5.9,6.8,11.1,14.2,15.9,21.8,2,3.1,4,6.2,5.9,9.4,5.4,8.9,10.4,18,15,27.3,3,6.1,5.8,12.4,8.5,18.6,3.6,8.6,6.9,17.5,9.2,26.6,1.7,7.7,3.3,16.1,2.5,24.3h0Z"/>
        <path class="cls-4" d="M244.6,109.2c6,7.6,9.5,17.2,9.5,27.7s-1,10.8-2.8,15.7c-.6-1.1-1.3-2.2-1.9-3.3,1.1,2.6,1,5.8-.3,8.3-.1.2-.1.3-.3.5-.8,1.3-1.6,2.7-2.4,4,0,.1-.1.1-.2.2-5.3,8.6-11.5,16.6-18.2,24.2-13.2,14.9-28.7,27.9-45.4,38.8-12.7,8.3-26.9,16.2-41.9,19.5-6.3,1.4-11.8-2.8-12.1-9.2-1.2-27.7,4.4-55.4,16-80.6-9.4-6.2-18.5-13.1-27.1-20.3-12.4-10.4-24.8-22.2-33.2-36.2-3.1-5.5-.1-12.5,5.8-14.2,26.4-7.5,54.3-5.4,80.6,1.3,2.6-12.4,5.9-24.8,10-36.8,5.5-16.2,12.3-33.6,24.4-46,3.4-3.5,10.2-3.8,13.5,0,19.9,22.6,35.5,49.6,37.2,80-6.4.6-12.7,1.4-19.1,2.2,0-2-.2-3.9-.4-5.8-.1-.6-.1-1.2-.2-1.8,0-.2-.3-1.7-.3-2-.3-1.8-.7-3.6-1.1-5.4-.8-3.4-1.8-6.8-2.9-10.1-.6-1.7-1.3-3.4-1.9-5.1-.1-.2-.1-.3-.2-.5s-.1-.2-.2-.4c-.3-.8-.7-1.5-1-2.3-3-6.6-6.7-12.9-10.8-18.9-1-1.5-2.1-3.1-3.2-4.6-.5-.7-1-1.4-1.6-2.1-.1-.2-.2-.3-.3-.4s-.2-.2-.3-.4c-.1-.1-.1-.2-.2-.3-2.1,3.3-3.9,6.8-5.6,10.3-.9,1.9-1.8,3.8-2.6,5.8-.2.5-.4,1-.6,1.5-.4,1-.8,1.9-1.1,2.8-1.7,4.3-3.1,8.6-4.6,13-2.9,9-5.3,18.1-7.4,27.4-.9,3.8-1.7,7.6-2.4,11.4-1,4.9-1.8,9.9-2.5,14.9-.1.4-.1.8-.2,1.2v.2h0v.2c0,.9-.2,1.8-.3,2.7-.2,1.8-.4,3.5-.6,5.2-.3,3.4-.6,6.8-.7,10.3-.2,5.4-4.2,9.4-9.6,9.6-5.1.2-9.8-4.6-9.6-9.6v-.8c.3-8.9,1.5-17.7,2.8-26.4-4.8-1.3-9.7-2.4-14.6-3.3-1.6-.3-3.3-.6-4.9-.8-.8-.2-1.7-.3-2.5-.4-.3,0-1-.2-1.3-.2-3.3-.4-6.6-.7-9.9-.9-6.7-.4-13.5-.3-20.2.3-1,0-2,.2-2.9.3-.3,0-.6,0-.9,0s-.7,0-1,.2c1.8,2,3.5,3.9,5.3,5.8,6,6.2,12.4,11.9,19,17.4,1.8,1.5,3.6,2.9,5.4,4.3.1,0,.1,0,.1,0,0,0,.1,0,.1,0,.4.3.8.6,1.2,1,1,.7,1.9,1.4,2.9,2.1,3.7,2.7,7.5,5.4,11.4,7.9,3.3,2.2,6.8,4.4,10.2,6.4,4.4,2.6,8.9,5.1,13.4,7.4,2.1,1,4.1,2,6.2,3,1,.4,1.9.9,2.9,1.3h0c.3.1.6.2.9.4,3.6,1.5,7.4,2.8,11.1,3.9,5.1,1.5,7.9,6.7,6.7,11.8-1.1,5-7,8.1-11.8,6.7-.2-.1-.4-.1-.6-.2h-.1c-9.6-2.8-18.9-7-27.8-11.6-1.6-.9-3.2-1.8-4.8-2.6-.4,1-.9,2-1.3,3-.1.3-.7,1.6-.7,1.6-.3.7-.6,1.5-.9,2.2-.6,1.6-1.2,3.3-1.8,5-2.2,6.3-4,12.8-5.4,19.4-.8,3.4-1.3,6.9-1.9,10.4,0,.3-.1.6-.1.9-.1.8-.2,1.5-.3,2.3-.2,1.8-.4,3.5-.5,5.3-.2,2.5-.3,5-.4,7.6.1,0,.1-.1.2-.1s.4-.1.7-.3h.1q.1,0,.2-.1h0c1.8-.8,3.6-1.7,5.4-2.6,7.4-3.7,14.5-7.9,21.4-12.5,3.5-2.4,7-4.9,10.4-7.5.3-.2.7-.5.9-.7.4-.3.8-.7,1.2-1,.9-.8,1.9-1.5,2.8-2.2,1.8-1.4,3.4-2.9,5.1-4.4,3.4-3,6.7-6.1,9.9-9.3,3.7-3.6,7.2-7.4,10.6-11.4,1.6-1.9,3.1-3.8,4.6-5.6l.2-.2c0-.1.1-.1,0-.1.3-.4.6-.9,1-1.3.7-1,1.4-1.9,2.1-2.9,2-2.8,3.9-5.7,5.8-8.7.1-.1.1-.2.2-.3l1.6-2.7c.1-.1.1-.3.2-.4,2.7-4.6,8.5-5.9,13.1-3.4.9.5,1.7,1.2,2.3,1.9-1.8-2.8-3.5-5.6-5.4-8.4-2.3-3.4-4.6-6.7-7-10-.4-.5-.8-1-1.1-1.5-.1,0-.3-.3-.4-.5-.3-.4-.6-.8-.7-.9-1-1.2-2-2.4-3-3.7-3.5-4.1-3.7-9.5,0-13.5,3.3-3.6,10.3-3.8,13.5,0,.9,0,1.2.3,1.4.7h0Z"/>
        <path class="cls-2" d="M386.5,158.2c-8.1,4.7-16.8,8.4-25.8,11.2-12,3.7-24.5,5.5-36.9,5.5s-28.8-2.4-42.4-7.2c-4.6-9.3-9.6-18.5-15-27.3,1.5-.5,3.1-1.1,4.6-1.6.3-.1,1.4-.6,1.7-.7.6-.3,1.2-.6,1.8-.8,1.7-.8,3.3-1.6,5-2.4,3.3-1.7,6.5-3.6,9.6-5.7,1.5-1,3-2.1,4.5-3.2.3-.2.5-.3.5-.4.1,0,.2-.2.3-.3.7-.6,1.4-1.2,2.1-1.8,2.9-2.5,5.7-5.1,8.4-7.9,1.3-1.3,2.5-2.7,3.7-4.1.5-.6,1-1.2,1.5-1.8.1-.2,1-1.3,1.3-1.7,1.6-2.2,3.1-4.4,4.6-6.7-3.5-.3-7-.7-10.6-.8-18.9-.9-37.9.3-56.7,2.4-2.3.3-4.6.5-6.9.8-.1,0-.3,0-.5,0-.6,0-1.1.2-1.7.3h-.1c-1,0-2,.3-3,.4-4.4.7-8.8,1.4-13.2,2.3-7,1.3-14.1,2.9-20.8,5.2-.3,0-.6.2-1,.3-4.8,1.2-9.6-2.4-11-6.9-1.7-5.1,1.9-10.1,6.6-11.8h.1c8-2.7,16.4-4.5,24.7-6,4.9-.9,9.8-1.7,14.6-2.4,6.3-.9,12.7-1.6,19.1-2.2,8.7-.8,17.4-1.4,26.1-1.7,16.9-.6,35-.8,51.4,3.8,6.4,1.8,8.3,8.5,5.7,14.1-10,21.9-27.6,40.1-48.8,51.7,1.9.6,3.7,1.1,5.6,1.6,3.6.9,7.2,1.7,10.9,2.3.5.1,1.9.3,1.9.3.6.1,1.3.1,1.9.2,1.8.2,3.7.3,5.5.5,7.3.4,14.6.2,21.8-.7h.5c.4-.1.9-.1,1.3-.2.9-.1,1.7-.3,2.5-.4,1.7-.3,3.4-.6,5-1,3.6-.8,7.2-1.8,10.7-3,1.9-.6,3.8-1.3,5.6-2,.6-.2,1.2-.5,1.9-.8.2-.1,1.1-.5,1.4-.6,3.4-1.5,6.7-3.2,9.9-5.1,4.6-2.7,10.3-.9,13.1,3.4,3.2,4,1.3,10.3-3,12.8h0Z"/>
        <path class="cls-5" d="M244.6,109.2c-.3-.4-.6-.7-.9-1h0c-1.2-1.5-2.6-3-4-4.3-8.1-7.5-18.8-12.1-30.6-12.1s-7.9.5-11.6,1.5h-.1c-3.3.9-6.5,2.2-9.5,3.8-12.5,6.7-21.5,19.1-23.4,33.8-.3,1.9-.4,3.9-.4,5.9s.3,5.4.7,8.1c2.9,15.8,14.1,28.8,28.9,34.2h.1c3.9,1.4,8,2.3,12.3,2.6,1,.1,2,.1,3,.1,15.4,0,29.1-7.8,37.2-19.6l.2-.2c.9-1.3,1.7-2.6,2.4-4,.1-.2.2-.3.3-.5.9-1.6,1.6-3.3,2.3-5,1.8-4.9,2.8-10.2,2.8-15.7-.1-10.4-3.7-20-9.7-27.6h0ZM230.6,151.3c0,.1-.1.2-.2.3-4.7,6.7-12.5,11.2-21.3,11.2-14.3,0-25.9-11.6-25.9-25.9s7.8-21.7,18.5-24.8c.3,0,.6-.2,1-.3,2-.5,4.2-.8,6.4-.8,14.3,0,25.9,11.6,25.9,25.9s-1,8.2-2.8,11.8c-.5.8-1,1.7-1.6,2.6Z"/>
      </g>
      <rect class="cls-3" x="786" y="359" width="107" height="153"/>
    </g>
  </g>
</svg>