<?xml version="1.0" encoding="utf-8"?>
<!-- Generator: Adobe Illustrator 26.1.0, SVG Export Plug-In . SVG Version: 6.00 Build 0)  -->
<svg version="1.1" id="a" xmlns="http://www.w3.org/2000/svg" xmlns:xlink="http://www.w3.org/1999/xlink" x="0px" y="0px"
	 viewBox="0 0 1321.6 246.9" style="enable-background:new 0 0 1321.6 246.9;" xml:space="preserve">
<style type="text/css">
	.st0{fill:#F0C62B;}
	.st1{display:none;fill:#F0C62B;}
	.st2{fill:#006128;}
	.st3{fill:#003A17;}
	.st4{display:none;}
</style>
<g>
	<g>
		<path class="st0" d="M492.5,197c0-3.2,2.4-4.8,5.7-4.8s5.7,1.6,5.7,4.8v38c3.2,1,7,1.4,11.4,1.4c4.2,0,11.1-0.7,14.2-1.5
			c3.6-1.1,6.2,2.1,6.2,5.1c0,1.8-1,3.6-3.3,4.4c-6.4,2-11.7,2.2-17.1,2.2c-6.2,0-22.8-0.5-22.8-5.7V197L492.5,197z"/>
		<path class="st0" d="M578.3,229.6h-26.9v11c0,3.7-2.9,5.1-5.7,5.1s-5.7-1.4-5.7-5.1v-23.2c0-16,8.7-25.7,24.9-25.7
			s24.8,9.6,24.8,25.7v23.2c0,3.7-2.8,5.1-5.6,5.1c-2.8,0-5.7-1.4-5.7-5.1L578.3,229.6L578.3,229.6z M551.3,220.3h26.9v-2.9
			c0-11.9-6.4-15.9-13.5-15.9c-7.2,0-13.4,4.1-13.4,15.9V220.3z"/>
		<path class="st0" d="M635.8,217.1c0-11.5-6.4-15.3-14.2-15.3c-7.8,0-14.3,3.8-14.3,15.3v23.6c0,3.7-2.2,5.1-5.7,5.1
			c-3.5,0-5.7-1.4-5.7-5.1v-23.5c0-16.1,8.9-25.6,25.7-25.6s25.7,9.5,25.7,25.6v23.5c0,3.7-2.3,5.1-5.7,5.1s-5.7-1.4-5.7-5.1
			L635.8,217.1L635.8,217.1z"/>
		<path class="st0" d="M654.3,197.5c0-4.9,15.4-5.8,21.7-5.8c20.7,0,30.3,8.7,30.3,27.1c0,19.5-10.8,27.4-30.6,27.4
			c-6.5,0-21.4-0.9-21.4-5.8L654.3,197.5L654.3,197.5z M665.7,236c1.8,0.5,4.8,1.1,9.6,1.1c12.5,0,19-4.8,19-18.2
			c0-15.2-7.9-18.3-18.5-18.3c-4.3,0-7.1,0.5-10.1,1.3L665.7,236L665.7,236z"/>
		<path class="st0" d="M733.8,246.1c-8.7,0-17.4-1.6-21.2-3.7c-1.8-1-2.6-2.5-2.6-4c0-2.9,2.9-5.7,6.8-4.4c4.5,1.6,9.3,2.8,16.2,2.8
			c7.3,0,12.7-1.6,12.7-6.5c0-11.4-33.5-2.5-33.5-23.4c0-13.6,13.8-15.4,22.4-15.4c7.6,0,14,1.7,17.4,3.2c1.9,0.9,2.7,2.5,2.7,4.1
			c0,2.3-1.8,4.5-4.8,4.5c-0.7,0-1.5-0.1-2.3-0.4c-3.9-1.3-6.9-2.1-13.4-2.1c-6.5,0-10.9,0.9-10.9,5.7c0,11.3,33.4,2.2,33.4,23.4
			C756.7,243.6,743.5,246.1,733.8,246.1L733.8,246.1z"/>
		<path class="st0" d="M791.8,246.5c-16.7,0-31-8.5-31-27.6s14.2-27.6,31-27.6c7.8,0,15.8,1.8,21.4,7c1,1.1,1.6,2.1,1.6,3.7
			c0,2.8-2.3,4.8-5.1,4.8c-2.6,0-4.7-1.8-6.6-2.7c-3.4-2-7.2-2.5-11.3-2.5c-10.1,0-18.3,5.7-18.3,17.3c0,11.6,8.1,17.4,18.4,17.4
			c5.2,0,10.1-1,14.6-3.6c1-0.6,2.2-0.8,3.1-0.8c3.1,0,5.5,2.7,5.5,5.4c0,1.3-0.6,2.7-1.9,3.7C806.9,245.4,799.4,246.6,791.8,246.5
			L791.8,246.5z"/>
		<path class="st0" d="M858.9,229.6h-26.9v11c0,3.7-2.9,5.1-5.7,5.1s-5.7-1.4-5.7-5.1v-23.2c0-16,8.7-25.7,24.9-25.7
			c16.2,0,24.8,9.6,24.8,25.7v23.2c0,3.7-2.8,5.1-5.6,5.1c-2.8,0-5.7-1.4-5.7-5.1L858.9,229.6L858.9,229.6z M831.9,220.3h26.9v-2.9
			c0-11.9-6.4-15.9-13.5-15.9c-7.2,0-13.4,4.1-13.4,15.9V220.3z"/>
		<path class="st0" d="M877.3,197.7c0-2.8,1-4,4.7-4.4c4.8-0.7,12.8-1.3,18.4-1.3c12.7,0,23.4,4.1,23.4,17.7
			c0,14.5-13.7,17.9-23.6,17.9c-4.1,0-8.4-0.4-11.5-0.6v13.6c0,3.3-2.7,5.2-5.7,5.2s-5.7-1.9-5.7-5.2L877.3,197.7L877.3,197.7z
			 M888.7,217.3c3.5,0.5,6.4,0.7,10.8,0.7c5.6,0,12.6-1,12.6-8.3c0-7.3-7.1-8.1-12.6-8.1c-4.3,0-7.2,0.2-10.8,0.8V217.3L888.7,217.3
			z"/>
		<path class="st0" d="M929.8,197.4c0-3.1,2.4-5.2,5.7-5.2c3.3,0,5.7,2.1,5.7,5.2v43.2c0,3.1-2.9,5.2-5.7,5.2s-5.7-2.1-5.7-5.2
			V197.4z"/>
		<path class="st0" d="M988.4,217.1c0-11.5-6.4-15.3-14.2-15.3c-7.8,0-14.3,3.8-14.3,15.3v23.6c0,3.7-2.2,5.1-5.7,5.1
			c-3.5,0-5.7-1.4-5.7-5.1v-23.5c0-16.1,8.9-25.6,25.7-25.6s25.7,9.5,25.7,25.6v23.5c0,3.7-2.3,5.1-5.7,5.1c-3.4,0-5.7-1.4-5.7-5.1
			L988.4,217.1L988.4,217.1z"/>
		<path class="st0" d="M1042.6,226.8c-3.8,0-5.6-2.1-5.6-5.1s1.8-5.1,5.6-5.1h15.6c2.8,0,5.6,1.4,5.6,6.7c0,11.5-9.6,23.4-27.8,23.4
			c-16.7,0-30.8-9.6-30.8-27.5s14.2-27.6,30.2-27.6c9,0,18.7,3.2,23.2,8c1,1.1,1.6,2.3,1.6,3.7c0,2.4-2.7,4.4-5.6,4.4
			c-2.7,0-4.3-1.8-6.1-2.9c-3.5-2.4-8-3.5-12.1-3.5c-10.3,0-18.3,5.8-18.3,18s8,17.8,18.6,17.8c7,0,13.1-2.9,15.4-10.1L1042.6,226.8
			L1042.6,226.8z"/>
	</g>
	<g>
		<path class="st1" d="M272.7,171.4c-23.2,0-37.6-14.1-37.6-34.2c0-20.1,14.5-34.2,37.6-34.2s37.6,14.1,37.6,34.2
			C310.3,157.2,295.7,171.4,272.7,171.4L272.7,171.4z M272.7,120.7c-9.5,0-15.5,6.8-15.5,16.5c0,9.6,6.1,16.5,15.5,16.5
			s15.5-6.8,15.5-16.5C288.2,127.5,282,120.7,272.7,120.7z"/>
		<path class="st1" d="M354.1,121.3c-4.5-0.2-8.2-0.3-12.6-0.3c-3.9,0-11,0.3-13.5,0.5c-5.4,0.2-8.9-4.3-8.9-8.9
			c0-3.6,2.2-7.2,7.5-7.9c7-0.9,14.5-1.4,22.5-1.4s16.6,0.6,23.5,1.7c6.2,0.9,8.2,5.3,8.2,9.5c0,3.7-1.6,7.3-3.4,8.7L344,151.6
			c2.8,0.3,7.6,0.6,12.7,0.6c3.9,0,12.9-0.6,15.8-1.4c5.8-1.2,10.1,3.6,10.1,8.5c0,3.3-2,6.5-6.7,7.9c-7.9,2.5-21.5,2.5-27,2.5
			c-4.5,0-19.1-0.3-26.7-4.2c-3.1-1.7-4.5-4.5-4.5-7.6c0-3.4,1.7-7,4.7-9.2L354.1,121.3L354.1,121.3z"/>
		<path class="st2" d="M458.9,162.7c-4.8,5.6-11.8,7.9-20.4,7.9c-19.6,0-33.3-11.8-33.3-32.5c0-20.7,15.2-35.8,37.6-35.8
			s37.2,15.2,37.5,34.3v27.5c0,29.7-23,36.5-44.5,36.5c-10.7,0-18.3-1.4-25-3.3c-4.3-1.1-6.4-4.7-6.4-8.4c0-5.1,4-10.6,11.7-8.9
			c7,1.7,10.4,2.6,20.2,2.6c10.7,0,22.5-4.5,22.5-18.6L458.9,162.7L458.9,162.7z M442.9,120.2c-7.9,0-15.5,5.3-15.5,16
			c0,10.7,7.6,15.9,15.5,15.9s15.7-5.1,15.7-15.9S451,120.2,442.9,120.2z"/>
		<path class="st2" d="M492.5,137.7c0-28.1,14.6-35.3,36.4-35.3c7.2,0,9.8,5.1,9.8,10.4s-2.6,10.4-9.8,10.4
			c-12.1,0-15.2,7.5-15.2,15.5v20.8c0,6.4-4,9.6-10.6,9.6s-10.6-3.1-10.6-9.6V137.7z"/>
		<path class="st2" d="M562.9,143c2.2,6.7,8.1,10.4,19.7,10.4c7.2,0,11.2-1.6,15.2-3.1c6.7-2,11.2,2.6,11.2,7.5c0,2.6-1.4,5.3-4.2,7
			c-5.9,3.6-14.1,5.1-26.1,5.1c-24.9,0-37.5-13.8-37.5-33.4c0-21,14.1-34,37-34c17.1,0,31.5,7.5,31.5,23.6
			c0,15.2-12.7,20.4-27.8,20.4C575.3,146.4,568.6,145.6,562.9,143L562.9,143z M562.7,128.6c5.4,2.2,9.5,3.1,15.5,3.1
			c7.8,0,11.2-2.2,11.2-6.5c0-4.7-3.9-7-10.7-7C569.4,118.1,564.6,121.9,562.7,128.6L562.7,128.6z"/>
		<path class="st2" d="M639.8,143c2.2,6.7,8.1,10.4,19.7,10.4c7.2,0,11.2-1.6,15.2-3.1c6.7-2,11.2,2.6,11.2,7.5c0,2.6-1.4,5.3-4.2,7
			c-5.9,3.6-14.1,5.1-26.1,5.1c-24.9,0-37.5-13.8-37.5-33.4c0-21,14.1-34,37-34c17.1,0,31.5,7.5,31.5,23.6
			c0,15.2-12.7,20.4-27.8,20.4C652.2,146.4,645.6,145.6,639.8,143L639.8,143z M639.7,128.6c5.4,2.2,9.5,3.1,15.5,3.1
			c7.8,0,11.2-2.2,11.2-6.5c0-4.7-3.9-7-10.7-7C646.3,118.1,641.5,121.9,639.7,128.6L639.7,128.6z"/>
		<path class="st2" d="M744.3,134.9c0-9.5-5.3-13.7-12.9-13.7s-12.9,4.2-12.9,13.7v24.2c0,6.5-4.7,10.1-10.7,10.1
			s-10.6-3.3-10.6-10.1v-24.4c0-22.4,14.5-32.3,34.2-32.3s34.2,9.9,34.2,32.3v24.4c0,6.7-4.5,10.1-10.7,10.1s-10.6-3.3-10.6-10.1
			V134.9z"/>
		<path class="st2" d="M838.7,170.2c-10.4,0-17.6-1.7-23.9-3.9c-4-1.4-5.9-4.7-5.9-7.8c0-5,4.7-9.8,11.7-7.6
			c5.1,1.4,12.6,3.3,18.2,3.3c6.8,0,11.7-1.2,11.7-4.8c0-9.5-39.5,1.7-39.5-24.4c0-20.5,20.2-22.4,31.1-22.4
			c8.9,0,16.3,1.4,21.9,3.6c4.2,1.4,6.1,4.7,6.1,7.8c0,4.8-4.3,9.6-10.9,7.8c-5.1-1.6-11.5-2.6-17.1-2.6c-4.8,0-9,0.8-9,4
			c0,9,39.5-1.4,39.5,25.2C872.4,168.2,849.9,170.2,838.7,170.2L838.7,170.2z"/>
		<path class="st2" d="M881.3,92.8c0-6.4,5-9.5,9.9-9.5s10.3,3.1,10.3,9.5V104h7.8c6.8,0,10.4,5,10.4,9.9s-3.4,9.8-10.4,9.8h-7.8
			v13.8c0,7.8,3.4,12,11.3,12c6.2,0,8.9,5,8.9,9.8c0,4.8-2.9,9.9-9.9,9.9c-25,0-30.5-12.6-30.5-31.7L881.3,92.8L881.3,92.8z"/>
		<path class="st2" d="M1001.9,146.6c0,3.3,0.8,4.5,3.3,4.8c3.7,0.8,5.8,5.3,5.3,9.5c-0.5,4.2-3.4,8.4-11.8,8.4
			c-6.5,0-12-2.8-14.8-8.1c-5,5.3-12.7,8.5-24.1,8.5c-19.7,0-32.5-11.7-32.5-31.4c0-23.2,16-35.9,37.6-35.9c23.2,0,37,14.8,37,34.7
			L1001.9,146.6L1001.9,146.6z M964.9,119.4c-9,0-16.6,5.6-16.6,17.3c0,10.9,7.8,16,16.2,16c8.9,0,16.8-5.8,16.8-16.3
			C981.2,124.7,973.6,119.4,964.9,119.4L964.9,119.4z"/>
		<path class="st2" d="M1017.7,137.7c0-28.1,14.6-35.3,36.4-35.3c7.1,0,9.8,5.1,9.8,10.4s-2.6,10.4-9.8,10.4
			c-12.1,0-15.2,7.5-15.2,15.5v20.8c0,6.4-4,9.6-10.6,9.6c-6.5,0-10.6-3.1-10.6-9.6L1017.7,137.7L1017.7,137.7z"/>
	</g>
</g>
<g>
	<path class="st3" d="M141.2,162.1c-39.3,8.4-82.2,8.6-121.6,0.6c-12.2-2.5-17.4,16.2-5.2,18.7c42.9,8.8,89.1,8.6,131.9-0.6
		C158.6,178.2,153.4,159.5,141.2,162.1L141.2,162.1z"/>
	<path class="st3" d="M133.8,202.2c-39.3,8.4-82.3,8.6-121.7,0.6C-0.1,200.3-5.3,219,7,221.5c42.9,8.8,89.2,8.6,132-0.6
		C151.2,218.3,146,199.6,133.8,202.2L133.8,202.2L133.8,202.2z"/>
	<path class="st3" d="M21.7,150.8c-0.4,27.3-0.8,54.5-1.2,81.8c-0.2,12.5,19.2,12.5,19.4,0c0.4-27.3,0.8-54.5,1.2-81.8
		C41.3,138.3,21.9,138.3,21.7,150.8L21.7,150.8z"/>
	<path class="st3" d="M60.2,161.1c-1.2,23.8-2,47.6-3.1,71.4c-0.3,5.2,4.6,9.7,9.7,9.7c5.5,0,9.4-4.4,9.7-9.7
		c1.2-23.8,2-47.6,3.1-71.4c0.3-5.2-4.6-9.7-9.7-9.7C64.4,151.4,60.4,155.9,60.2,161.1L60.2,161.1z"/>
	<path class="st3" d="M95.1,153.6c3.2,25.1,3.4,51.2-0.3,76.3c-0.8,5.2,1.3,10.4,6.8,11.9c4.6,1.3,11.2-1.6,11.9-6.8
		c4-26.9,4.5-54.5,1-81.5c-0.7-5.2-4-9.7-9.7-9.7C100,143.9,94.4,148.4,95.1,153.6L95.1,153.6L95.1,153.6z"/>
	<path d="M185.2,113.4L185.2,113.4C185.2,113.3,185.2,113.3,185.2,113.4z"/>
	<path d="M148.8,222L148.8,222L148.8,222C148.7,222,148.8,222,148.8,222L148.8,222z"/>
	<path class="st2" d="M301.8,237.3c-0.6,5.9-5.7,11.2-12.1,9.2c-10.5-3.2-21.1-6.3-31.3-10.5c-10.7-4.4-20.7-9.9-30.1-16.7
		c-4.3-3.1-6.1-8.1-3.4-13.1c2.3-4.3,9.1-6.4,13.1-3.4c4.6,3.3,9.3,6.4,14.3,9.2c2.2,1.2,4.5,2.4,6.7,3.5c1.2,0.6,2.4,1.1,3.6,1.7
		c0.1,0,0.6,0.2,0.9,0.4c0.3,0.1,0.6,0.3,0.7,0.3c5.8,2.4,11.8,4.4,17.8,6.3c-0.1-0.9-0.3-1.8-0.5-2.6c-0.5-2.3-1.1-4.6-1.8-6.9
		c-1.2-4.3-2.7-8.6-4.2-12.9c-0.9-2.4-1.8-4.7-2.7-7c-0.1-0.3-0.5-1.2-0.7-1.8c-0.4-1-0.9-2-1.3-3c-4-9.2-8.6-18.2-13.4-27
		c-1.9-3.4-3.9-6.9-5.9-10.3c1.8-4.9,2.8-10.2,2.8-15.7c0-10.4-3.6-20-9.5-27.7c5.9,6.8,11.1,14.2,15.9,21.8c2,3.1,4,6.2,5.9,9.4
		c5.4,8.9,10.4,18,15,27.3c3,6.1,5.8,12.4,8.5,18.6c3.6,8.6,6.9,17.5,9.2,26.6C301,220.7,302.6,229.1,301.8,237.3L301.8,237.3z"/>
	<path class="st2" d="M244.6,109.2c6,7.6,9.5,17.2,9.5,27.7c0,5.5-1,10.8-2.8,15.7c-0.6-1.1-1.3-2.2-1.9-3.3c1.1,2.6,1,5.8-0.3,8.3
		c-0.1,0.2-0.1,0.3-0.3,0.5c-0.8,1.3-1.6,2.7-2.4,4c0,0.1-0.1,0.1-0.2,0.2c-5.3,8.6-11.5,16.6-18.2,24.2
		c-13.2,14.9-28.7,27.9-45.4,38.8c-12.7,8.3-26.9,16.2-41.9,19.5c-6.3,1.4-11.8-2.8-12.1-9.2c-1.2-27.7,4.4-55.4,16-80.6
		c-9.4-6.2-18.5-13.1-27.1-20.3c-12.4-10.4-24.8-22.2-33.2-36.2C81.2,93,84.2,86,90.1,84.3c26.4-7.5,54.3-5.4,80.6,1.3
		c2.6-12.4,5.9-24.8,10-36.8c5.5-16.2,12.3-33.6,24.4-46c3.4-3.5,10.2-3.8,13.5,0c19.9,22.6,35.5,49.6,37.2,80
		c-6.4,0.6-12.7,1.4-19.1,2.2c0-2-0.2-3.9-0.4-5.8c-0.1-0.6-0.1-1.2-0.2-1.8c0-0.2-0.3-1.7-0.3-2c-0.3-1.8-0.7-3.6-1.1-5.4
		c-0.8-3.4-1.8-6.8-2.9-10.1c-0.6-1.7-1.3-3.4-1.9-5.1c-0.1-0.2-0.1-0.3-0.2-0.5s-0.1-0.2-0.2-0.4c-0.3-0.8-0.7-1.5-1-2.3
		c-3-6.6-6.7-12.9-10.8-18.9c-1-1.5-2.1-3.1-3.2-4.6c-0.5-0.7-1-1.4-1.6-2.1c-0.1-0.2-0.2-0.3-0.3-0.4c-0.1-0.1-0.2-0.2-0.3-0.4
		c-0.1-0.1-0.1-0.2-0.2-0.3c-2.1,3.3-3.9,6.8-5.6,10.3c-0.9,1.9-1.8,3.8-2.6,5.8c-0.2,0.5-0.4,1-0.6,1.5c-0.4,1-0.8,1.9-1.1,2.8
		c-1.7,4.3-3.1,8.6-4.6,13c-2.9,9-5.3,18.1-7.4,27.4c-0.9,3.8-1.7,7.6-2.4,11.4c-1,4.9-1.8,9.9-2.5,14.9c-0.1,0.4-0.1,0.8-0.2,1.2
		c0,0,0,0.1,0,0.2v0c0,0,0,0.1,0,0.2c0,0.9-0.2,1.8-0.3,2.7c-0.2,1.8-0.4,3.5-0.6,5.2c-0.3,3.4-0.6,6.8-0.7,10.3
		c-0.2,5.4-4.2,9.4-9.6,9.6c-5.1,0.2-9.8-4.6-9.6-9.6c0-0.3,0-0.5,0-0.8c0.3-8.9,1.5-17.7,2.8-26.4c-4.8-1.3-9.7-2.4-14.6-3.3
		c-1.6-0.3-3.3-0.6-4.9-0.8c-0.8-0.2-1.7-0.3-2.5-0.4c-0.3,0-1-0.2-1.3-0.2c-3.3-0.4-6.6-0.7-9.9-0.9c-6.7-0.4-13.5-0.3-20.2,0.3
		c-1,0.1-2,0.2-2.9,0.3c-0.3,0-0.6,0.1-0.9,0.1c-0.3,0-0.7,0.1-1,0.2c1.8,2,3.5,3.9,5.3,5.8c6,6.2,12.4,11.9,19,17.4
		c1.8,1.5,3.6,2.9,5.4,4.3c0.1,0,0.1,0.1,0.1,0.1c0,0,0.1,0,0.1,0.1c0.4,0.3,0.8,0.6,1.2,1c1,0.7,1.9,1.4,2.9,2.1
		c3.7,2.7,7.5,5.4,11.4,7.9c3.3,2.2,6.8,4.4,10.2,6.4c4.4,2.6,8.9,5.1,13.4,7.4c2.1,1,4.1,2,6.2,3c1,0.4,1.9,0.9,2.9,1.3v0
		c0.3,0.1,0.6,0.2,0.9,0.4c3.6,1.5,7.4,2.8,11.1,3.9c5.1,1.5,7.9,6.7,6.7,11.8c-1.1,5-7,8.1-11.8,6.7c-0.2-0.1-0.4-0.1-0.6-0.2
		c0,0-0.1,0-0.1,0c-9.6-2.8-18.9-7-27.8-11.6c-1.6-0.9-3.2-1.8-4.8-2.6c-0.4,1-0.9,2-1.3,3c-0.1,0.3-0.7,1.6-0.7,1.6
		c-0.3,0.7-0.6,1.5-0.9,2.2c-0.6,1.6-1.2,3.3-1.8,5c-2.2,6.3-4,12.8-5.4,19.4c-0.8,3.4-1.3,6.9-1.9,10.4c0,0.3-0.1,0.6-0.1,0.9
		c-0.1,0.8-0.2,1.5-0.3,2.3c-0.2,1.8-0.4,3.5-0.5,5.3c-0.2,2.5-0.3,5-0.4,7.6c0.1,0,0.1-0.1,0.2-0.1c0.1,0,0.4-0.1,0.7-0.3
		c0,0,0,0,0.1,0c0.1,0,0.1,0,0.2-0.1h0l0,0c1.8-0.8,3.6-1.7,5.4-2.6c7.4-3.7,14.5-7.9,21.4-12.5c3.5-2.4,7-4.9,10.4-7.5
		c0.3-0.2,0.7-0.5,0.9-0.7c0.4-0.3,0.8-0.7,1.2-1c0.9-0.8,1.9-1.5,2.8-2.2c1.8-1.4,3.4-2.9,5.1-4.4c3.4-3,6.7-6.1,9.9-9.3
		c3.7-3.6,7.2-7.4,10.6-11.4c1.6-1.9,3.1-3.8,4.6-5.6c0.1-0.1,0.1-0.1,0.2-0.2c0-0.1,0.1-0.1,0-0.1c0.3-0.4,0.6-0.9,1-1.3
		c0.7-1,1.4-1.9,2.1-2.9c2-2.8,3.9-5.7,5.8-8.7c0.1-0.1,0.1-0.2,0.2-0.3l1.6-2.7c0.1-0.1,0.1-0.3,0.2-0.4c2.7-4.6,8.5-5.9,13.1-3.4
		c0.9,0.5,1.7,1.2,2.3,1.9c-1.8-2.8-3.5-5.6-5.4-8.4c-2.3-3.4-4.6-6.7-7-10c-0.4-0.5-0.8-1-1.1-1.5c-0.1-0.1-0.3-0.3-0.4-0.5
		c-0.3-0.4-0.6-0.8-0.7-0.9c-1-1.2-2-2.4-3-3.7c-3.5-4.1-3.7-9.5,0-13.5c3.3-3.6,10.3-3.8,13.5,0
		C244.1,108.5,244.4,108.8,244.6,109.2L244.6,109.2z"/>
	<path class="st0" d="M386.5,158.2c-8.1,4.7-16.8,8.4-25.8,11.2c-12,3.7-24.5,5.5-36.9,5.5c-14.4,0-28.8-2.4-42.4-7.2
		c-4.6-9.3-9.6-18.5-15-27.3c1.5-0.5,3.1-1.1,4.6-1.6c0.3-0.1,1.4-0.6,1.7-0.7c0.6-0.3,1.2-0.6,1.8-0.8c1.7-0.8,3.3-1.6,5-2.4
		c3.3-1.7,6.5-3.6,9.6-5.7c1.5-1,3-2.1,4.5-3.2c0.3-0.2,0.5-0.3,0.5-0.4c0.1-0.1,0.2-0.2,0.3-0.3c0.7-0.6,1.4-1.2,2.1-1.8
		c2.9-2.5,5.7-5.1,8.4-7.9c1.3-1.3,2.5-2.7,3.7-4.1c0.5-0.6,1-1.2,1.5-1.8c0.1-0.2,1-1.3,1.3-1.7c1.6-2.2,3.1-4.4,4.6-6.7
		c-3.5-0.3-7-0.7-10.6-0.8c-18.9-0.9-37.9,0.3-56.7,2.4c-2.3,0.3-4.6,0.5-6.9,0.8c-0.1,0-0.3,0-0.5,0.1c-0.6,0.1-1.1,0.2-1.7,0.3
		c0,0-0.1,0-0.1,0c-1,0.1-2,0.3-3,0.4c-4.4,0.7-8.8,1.4-13.2,2.3c-7,1.3-14.1,2.9-20.8,5.2c-0.3,0.1-0.6,0.2-1,0.3
		c-4.8,1.2-9.6-2.4-11-6.9c-1.7-5.1,1.9-10.1,6.6-11.8c0,0,0,0,0.1,0c8-2.7,16.4-4.5,24.7-6c4.9-0.9,9.8-1.7,14.6-2.4
		c6.3-0.9,12.7-1.6,19.1-2.2c8.7-0.8,17.4-1.4,26.1-1.7c16.9-0.6,35-0.8,51.4,3.8c6.4,1.8,8.3,8.5,5.7,14.1
		c-10,21.9-27.6,40.1-48.8,51.7c1.9,0.6,3.7,1.1,5.6,1.6c3.6,0.9,7.2,1.7,10.9,2.3c0.5,0.1,1.9,0.3,1.9,0.3c0.6,0.1,1.3,0.1,1.9,0.2
		c1.8,0.2,3.7,0.3,5.5,0.5c7.3,0.4,14.6,0.2,21.8-0.7c0.1,0,0.2,0,0.3,0c0,0,0.1,0,0.2,0c0.4-0.1,0.9-0.1,1.3-0.2
		c0.9-0.1,1.7-0.3,2.5-0.4c1.7-0.3,3.4-0.6,5-1c3.6-0.8,7.2-1.8,10.7-3c1.9-0.6,3.8-1.3,5.6-2c0.6-0.2,1.2-0.5,1.9-0.8
		c0.2-0.1,1.1-0.5,1.4-0.6c3.4-1.5,6.7-3.2,9.9-5.1c4.6-2.7,10.3-0.9,13.1,3.4C392.7,149.4,390.8,155.7,386.5,158.2L386.5,158.2z"/>
	<path class="st3" d="M244.6,109.2c-0.3-0.4-0.6-0.7-0.9-1l0,0c-1.2-1.5-2.6-3-4-4.3c-8.1-7.5-18.8-12.1-30.6-12.1
		c-4,0-7.9,0.5-11.6,1.5c0,0,0,0-0.1,0c-3.3,0.9-6.5,2.2-9.5,3.8c-12.5,6.7-21.5,19.1-23.4,33.8c-0.3,1.9-0.4,3.9-0.4,5.9
		c0,2.8,0.3,5.4,0.7,8.1c2.9,15.8,14.1,28.8,28.9,34.2c0,0,0.1,0,0.1,0c3.9,1.4,8,2.3,12.3,2.6c1,0.1,2,0.1,3,0.1
		c15.4,0,29.1-7.8,37.2-19.6c0.1-0.1,0.1-0.1,0.2-0.2c0.9-1.3,1.7-2.6,2.4-4c0.1-0.2,0.2-0.3,0.3-0.5c0.9-1.6,1.6-3.3,2.3-5
		c1.8-4.9,2.8-10.2,2.8-15.7C254.2,126.4,250.6,116.8,244.6,109.2L244.6,109.2z M230.6,151.3c0,0.1-0.1,0.2-0.2,0.3
		c-4.7,6.7-12.5,11.2-21.3,11.2c-14.3,0-25.9-11.6-25.9-25.9c0-11.7,7.8-21.7,18.5-24.8c0.3-0.1,0.6-0.2,1-0.3
		c2-0.5,4.2-0.8,6.4-0.8c14.3,0,25.9,11.6,25.9,25.9c0,4.2-1,8.2-2.8,11.8C231.7,149.5,231.2,150.4,230.6,151.3z"/>
</g>
<text transform="matrix(1 0 0 1 794 424)" style="font-family:'MyriadPro-Regular'; font-size:12px;">Lorem ipsum</text>
<rect x="786" y="359" style="fill:none;" width="107" height="153"/>
<g class="st4">
</g>
<g class="st4">
</g>
</svg>
